<svg width="19" height="19" viewBox="0 0 19 19" fill="none" xmlns="http://www.w3.org/2000/svg">
<path fill-rule="evenodd" clip-rule="evenodd" d="M9.49999 2C9.91886 2 10.2584 2.33956 10.2584 2.75843V9.77574L11.9131 8.12101C12.2093 7.82483 12.6895 7.82483 12.9857 8.12102C13.2819 8.4172 13.2819 8.89741 12.9857 9.19359L10.2071 11.9722C9.81657 12.3627 9.1834 12.3627 8.79288 11.9722L6.01427 9.19359C5.71809 8.89741 5.71809 8.4172 6.01427 8.12101C6.31046 7.82483 6.79067 7.82483 7.08685 8.12102L8.74156 9.77573V2.75843C8.74156 2.33956 9.08112 2 9.49999 2ZM2.75843 11.2697C3.17729 11.2697 3.51685 11.6092 3.51685 12.0281V14.4831C3.51685 15.0354 3.96457 15.4831 4.51685 15.4831H14.4831C15.0354 15.4831 15.4831 15.0354 15.4831 14.4831V12.0281C15.4831 11.6092 15.8227 11.2697 16.2416 11.2697C16.6604 11.2697 17 11.6092 17 12.0281V15C17 16.1046 16.1046 17 15 17H4C2.89543 17 2 16.1046 2 15V12.0281C2 11.6092 2.33956 11.2697 2.75843 11.2697Z" fill="#828282"/>
</svg>
