<svg width="20" height="20" viewBox="0 0 20 20" fill="none" xmlns="http://www.w3.org/2000/svg">
<path fill-rule="evenodd" clip-rule="evenodd" d="M10.6519 5.86111C11.0661 5.85515 11.4067 6.18607 11.4127 6.60024L11.464 10.1698L12.8498 11.5555C13.1427 11.8484 13.1427 12.3232 12.8498 12.6161C12.5569 12.909 12.082 12.9091 11.7891 12.6162L10.1882 11.0153C10.0502 10.8773 9.97139 10.6909 9.96858 10.4958L9.91281 6.62183C9.90685 6.20766 10.2378 5.86707 10.6519 5.86111Z" fill="#717171"/>
<path fill-rule="evenodd" clip-rule="evenodd" d="M18.4665 8.48315C18.8427 10.3374 18.5166 12.2652 17.5516 13.8925C16.5866 15.5199 15.0515 16.7308 13.2441 17.2902C11.4367 17.8496 9.48598 17.7176 7.77039 16.92C7.39479 16.7453 7.23188 16.2993 7.40652 15.9237C7.58116 15.5481 8.02721 15.3852 8.40281 15.5598C9.78118 16.2007 11.3485 16.3067 12.8006 15.8572C14.2527 15.4078 15.4861 14.4349 16.2614 13.1275C17.0367 11.82 17.2987 10.2711 16.9965 8.78136C16.6943 7.29163 15.8495 5.96727 14.6259 5.06527C13.4024 4.16326 11.8874 3.74793 10.375 3.89986C8.8625 4.05179 7.46041 4.76015 6.44073 5.88749C5.42106 7.01483 4.85652 8.48076 4.85666 10.0008C4.85681 11.5209 5.42162 12.9867 6.4415 14.1139L5.32924 15.1203C4.05983 13.7174 3.35684 11.8929 3.35666 10.001C3.35649 8.10901 4.05914 6.28443 5.32828 4.88128C6.59742 3.47813 8.34255 2.59647 10.225 2.40737C12.1075 2.21827 13.9932 2.73522 15.516 3.8579C17.0389 4.98058 18.0904 6.62895 18.4665 8.48315Z" fill="#717171"/>
<path fill-rule="evenodd" clip-rule="evenodd" d="M7.87752 10.7106C8.23133 10.926 8.34356 11.3874 8.12818 11.7412L6.15493 14.9828C5.94526 15.3272 5.50077 15.4442 5.14868 15.2477L1.76587 13.359C1.40421 13.1571 1.27471 12.7002 1.47663 12.3385C1.67856 11.9769 2.13543 11.8474 2.49709 12.0493L5.24924 13.5859L6.8469 10.9613C7.06228 10.6075 7.52371 10.4952 7.87752 10.7106Z" fill="#717171"/>
</svg>
