<svg width="20" height="20" viewBox="0 0 20 20" fill="none" xmlns="http://www.w3.org/2000/svg">
<path d="M3.25 4.78906H4.75H16.75" stroke="#717171" stroke-width="1.5" stroke-linecap="round" stroke-linejoin="round"/>
<path d="M15.25 4.78906V15.2891C15.25 15.6869 15.092 16.0684 14.8107 16.3497C14.5294 16.631 14.1478 16.7891 13.75 16.7891H6.25C5.85218 16.7891 5.47064 16.631 5.18934 16.3497C4.90804 16.0684 4.75 15.6869 4.75 15.2891V4.78906M7 4.78906V3.28906C7 2.89124 7.15804 2.50971 7.43934 2.2284C7.72064 1.9471 8.10218 1.78906 8.5 1.78906H11.5C11.8978 1.78906 12.2794 1.9471 12.5607 2.2284C12.842 2.50971 13 2.89124 13 3.28906V4.78906" stroke="#717171" stroke-width="1.5" stroke-linecap="round" stroke-linejoin="round"/>
<path d="M8.5 8.53906V13.0391" stroke="#717171" stroke-width="1.5" stroke-linecap="round" stroke-linejoin="round"/>
<path d="M11.5 8.53906V13.0391" stroke="#717171" stroke-width="1.5" stroke-linecap="round" stroke-linejoin="round"/>
</svg>
