<svg width="17" height="13" viewBox="0 0 17 13" fill="none" xmlns="http://www.w3.org/2000/svg">
<path fill-rule="evenodd" clip-rule="evenodd" d="M0.764706 0C0.34237 0 0 0.34237 0 0.764706V12.2353C0 12.6576 0.342371 13 0.764707 13H16.0569C16.4792 13 16.8216 12.6576 16.8216 12.2353V0.764706C16.8216 0.342371 16.4792 0 16.0569 0H0.764706ZM15.6745 11.8529H1.14706V4.09333H15.6745V11.8529ZM2.05551 2.70781C2.43481 2.70781 2.7423 2.40032 2.7423 2.02101C2.7423 1.64171 2.43481 1.33422 2.05551 1.33422C1.6762 1.33422 1.36871 1.64171 1.36871 2.02101C1.36871 2.40032 1.6762 2.70781 2.05551 2.70781ZM4.79996 2.70781C5.17926 2.70781 5.48675 2.40032 5.48675 2.02101C5.48675 1.64171 5.17926 1.33422 4.79996 1.33422C4.42065 1.33422 4.11316 1.64171 4.11316 2.02101C4.11316 2.40032 4.42065 2.70781 4.79996 2.70781ZM7.54439 2.70781C7.92369 2.70781 8.23118 2.40032 8.23118 2.02101C8.23118 1.64171 7.92369 1.33422 7.54439 1.33422C7.16508 1.33422 6.85759 1.64171 6.85759 2.02101C6.85759 2.40032 7.16508 2.70781 7.54439 2.70781Z" fill="#A0A0A0"/>
</svg>
