<svg width="19" height="19" viewBox="0 0 19 19" fill="none" xmlns="http://www.w3.org/2000/svg">
<path fill-rule="evenodd" clip-rule="evenodd" d="M2 5.2C2 4.07989 2 3.51984 2.21799 3.09202C2.40973 2.71569 2.71569 2.40973 3.09202 2.21799C3.51984 2 4.0799 2 5.2 2H6.97191C7.39078 2 7.73034 2.33956 7.73034 2.75843C7.73034 3.17729 7.39078 3.51685 6.97191 3.51685H5.11685C4.5568 3.51685 4.27678 3.51685 4.06286 3.62585C3.8747 3.72172 3.72172 3.8747 3.62585 4.06286C3.51685 4.27678 3.51685 4.5568 3.51685 5.11686V13.8831C3.51685 14.4432 3.51685 14.7232 3.62585 14.9371C3.72172 15.1253 3.8747 15.2783 4.06286 15.3742C4.27678 15.4831 4.5568 15.4831 5.11686 15.4831H13.8831C14.4432 15.4831 14.7232 15.4831 14.9371 15.3742C15.1253 15.2783 15.2783 15.1253 15.3742 14.9371C15.4831 14.7232 15.4831 14.4432 15.4831 13.8831V12.0281C15.4831 11.6092 15.8227 11.2697 16.2416 11.2697C16.6604 11.2697 17 11.6092 17 12.0281V13.8C17 14.9201 17 15.4802 16.782 15.908C16.5903 16.2843 16.2843 16.5903 15.908 16.782C15.4802 17 14.9201 17 13.8 17H5.2C4.07989 17 3.51984 17 3.09202 16.782C2.71569 16.5903 2.40973 16.2843 2.21799 15.908C2 15.4802 2 14.9201 2 13.8V5.2ZM11.1854 3.51685C10.7665 3.51685 10.427 3.17729 10.427 2.75843C10.427 2.33956 10.7665 2 11.1854 2H15.4C15.9601 2 16.2401 2 16.454 2.10899C16.6422 2.20487 16.7951 2.35785 16.891 2.54601C17 2.75992 17 3.03995 17 3.6V7.81461C17 8.23347 16.6604 8.57303 16.2416 8.57303C15.8227 8.57303 15.4831 8.23347 15.4831 7.81461V4.58943L9.19359 10.879C8.89741 11.1752 8.4172 11.1752 8.12101 10.879C7.82483 10.5828 7.82483 10.1026 8.12101 9.80641L14.4106 3.51685H11.1854Z" fill="#828282"/>
</svg>
