<svg width="19" height="19" viewBox="0 0 19 19" fill="none" xmlns="http://www.w3.org/2000/svg">
<path fill-rule="evenodd" clip-rule="evenodd" d="M6.17254 3.45234H2.7357C2.32938 3.45234 2 3.78172 2 4.18804C2 4.59436 2.32938 4.92374 2.7357 4.92374H3.63489V16.1854C3.63489 16.7377 4.08261 17.1854 4.63489 17.1854H13.9157C14.4679 17.1854 14.9157 16.7377 14.9157 16.1854V4.92374H15.8148C16.2212 4.92374 16.5505 4.59436 16.5505 4.18804C16.5505 3.78172 16.2212 3.45234 15.8148 3.45234H12.378C12.0459 2.04632 10.7828 1 9.27527 1C7.76778 1 6.50467 2.04632 6.17254 3.45234ZM7.72383 3.45234H10.8267C10.5512 2.87237 9.96006 2.4714 9.27527 2.4714C8.59048 2.4714 7.99934 2.87237 7.72383 3.45234ZM5.1063 4.92374V15.714H13.4442V4.92374H5.1063ZM7.64038 7.53957C8.0467 7.53957 8.37608 7.86896 8.37608 8.27527V12.3625C8.37608 12.7688 8.0467 13.0982 7.64038 13.0982C7.23406 13.0982 6.90468 12.7688 6.90468 12.3625V8.27527C6.90468 7.86896 7.23406 7.53957 7.64038 7.53957ZM10.9102 7.53957C11.3165 7.53957 11.6459 7.86896 11.6459 8.27527V12.3625C11.6459 12.7688 11.3165 13.0982 10.9102 13.0982C10.5038 13.0982 10.1745 12.7688 10.1745 12.3625V8.27527C10.1745 7.86896 10.5038 7.53957 10.9102 7.53957Z" fill="#828282"/>
</svg>
