<svg width="19" height="19" viewBox="0 0 19 19" fill="none" xmlns="http://www.w3.org/2000/svg">
<path fill-rule="evenodd" clip-rule="evenodd" d="M5.2 17C4.07989 17 3.51984 17 3.09202 16.782C2.71569 16.5903 2.40973 16.2843 2.21799 15.908C2 15.4802 2 14.9201 2 13.8L2 5.2C2 4.0799 2 3.51984 2.21799 3.09202C2.40973 2.7157 2.71569 2.40973 3.09202 2.21799C3.51984 2 4.0799 2 5.2 2L10.3427 2C10.7616 2 11.1011 2.33956 11.1011 2.75843C11.1011 3.17729 10.7616 3.51685 10.3427 3.51685L5.11685 3.51685C4.5568 3.51685 4.27678 3.51685 4.06286 3.62585C3.8747 3.72172 3.72172 3.8747 3.62585 4.06286C3.51685 4.27678 3.51685 4.5568 3.51685 5.11686L3.51685 13.8831C3.51685 14.4432 3.51685 14.7232 3.62585 14.9371C3.72172 15.1253 3.8747 15.2783 4.06286 15.3742C4.27678 15.4831 4.5568 15.4831 5.11686 15.4831L13.8831 15.4831C14.4432 15.4831 14.7232 15.4831 14.9371 15.3742C15.1253 15.2783 15.2783 15.1253 15.3742 14.9371C15.4831 14.7232 15.4831 14.4432 15.4831 13.8831L15.4831 8.6573C15.4831 8.23844 15.8227 7.89888 16.2416 7.89888C16.6604 7.89888 17 8.23844 17 8.6573L17 13.8C17 14.9201 17 15.4802 16.782 15.908C16.5903 16.2843 16.2843 16.5903 15.908 16.782C15.4802 17 14.9201 17 13.8 17L5.2 17ZM8.65618 11.9438C8.09613 11.9438 7.8161 11.9438 7.60219 11.8348C7.41403 11.739 7.26105 11.586 7.16517 11.3978C7.05618 11.1839 7.05618 10.9039 7.05618 10.3438L7.05618 6.97191C7.05618 6.55304 7.39574 6.21348 7.81461 6.21348C8.23347 6.21348 8.57303 6.55304 8.57303 6.97191L8.57303 9.35439L14.0199 3.90753C14.3161 3.61135 14.7963 3.61135 15.0925 3.90753C15.3887 4.20372 15.3887 4.68392 15.0925 4.98011L9.64561 10.427L12.0281 10.427C12.447 10.427 12.7865 10.7665 12.7865 11.1854C12.7865 11.6043 12.447 11.9438 12.0281 11.9438L8.65618 11.9438Z" fill="#828282"/>
</svg>
