<svg width="20" height="20" viewBox="0 0 20 20" fill="none" xmlns="http://www.w3.org/2000/svg">
<path fill-rule="evenodd" clip-rule="evenodd" d="M9.13219 2.8837C9.45329 2.11168 10.5469 2.11168 10.868 2.8837L12.6988 7.28547L17.4509 7.66644C18.2844 7.73326 18.6223 8.77337 17.9873 9.31732L14.3667 12.4187L15.4729 17.056C15.6669 17.8693 14.7821 18.5121 14.0686 18.0763L10.0001 15.5913L5.93167 18.0763C5.21812 18.5121 4.33334 17.8693 4.52735 17.056L5.63349 12.4187L2.01291 9.31732C1.37791 8.77337 1.71586 7.73326 2.54932 7.66644L7.3014 7.28547L9.13219 2.8837ZM10.0001 4.7029L8.55502 8.17733C8.41965 8.50279 8.11358 8.72517 7.76222 8.75334L4.01128 9.05405L6.8691 11.5021C7.1368 11.7314 7.25371 12.0912 7.17192 12.4341L6.29881 16.0943L9.51014 14.1329C9.81095 13.9491 10.1893 13.9491 10.4901 14.1329L13.7014 16.0943L12.8283 12.4341C12.7465 12.0912 12.8634 11.7314 13.1311 11.5021L15.9889 9.05405L12.238 8.75334C11.8867 8.72517 11.5806 8.50279 11.4452 8.17733L10.0001 4.7029Z" fill="#828282"/>
</svg>
