<svg width="24" height="24" viewBox="0 0 24 24" fill="none" xmlns="http://www.w3.org/2000/svg">
<path fill-rule="evenodd" clip-rule="evenodd" d="M2 4C1.44772 4 1 4.44772 1 5V20C1 20.5523 1.44772 21 2 21H21.9974C22.5497 21 22.9974 20.5523 22.9974 20V5C22.9974 4.44772 22.5497 4 21.9974 4H2ZM21.4974 19.5H2.5V9.35281H21.4974V19.5ZM3.68797 7.54098C4.18399 7.54098 4.58608 7.13888 4.58608 6.64287C4.58608 6.14685 4.18399 5.74475 3.68797 5.74475C3.19196 5.74475 2.78986 6.14685 2.78986 6.64287C2.78986 7.13888 3.19196 7.54098 3.68797 7.54098ZM7.27687 7.54098C7.77288 7.54098 8.17498 7.13888 8.17498 6.64287C8.17498 6.14685 7.77288 5.74475 7.27687 5.74475C6.78085 5.74475 6.37875 6.14685 6.37875 6.64287C6.37875 7.13888 6.78085 7.54098 7.27687 7.54098ZM10.8657 7.54098C11.3617 7.54098 11.7638 7.13888 11.7638 6.64287C11.7638 6.14685 11.3617 5.74475 10.8657 5.74475C10.3697 5.74475 9.96762 6.14685 9.96762 6.64287C9.96762 7.13888 10.3697 7.54098 10.8657 7.54098Z" fill="#828282"/>
</svg>
